<?xml version="1.0" standalone="no"?>
<!DOCTYPE svg PUBLIC "-//W3C//DTD SVG 20010904//EN"
 "http://www.w3.org/TR/2001/REC-SVG-20010904/DTD/svg10.dtd">
<svg version="1.0" xmlns="http://www.w3.org/2000/svg"
 width="554.000000pt" height="554.000000pt" viewBox="0 0 554.000000 554.000000"
 preserveAspectRatio="xMidYMid meet">

<g transform="translate(0.000000,554.000000) scale(0.100000,-0.100000)"
fill="#000000" stroke="none">
<path d="M94 5534 c-12 -3 -36 -21 -55 -40 l-34 -35 0 -2689 0 -2690 38 -37
37 -38 2689 0 2689 0 27 25 c59 55 70 127 29 184 -45 60 161 56 -2663 56
l-2581 0 -2 2595 -3 2595 -36 36 c-36 36 -83 49 -135 38z"/>
<path d="M578 4571 c-27 -24 -33 -36 -33 -71 0 -35 6 -47 33 -71 l32 -29 1685
0 c1048 0 1693 4 1709 10 27 10 56 56 56 89 0 34 -23 72 -51 87 -24 12 -274
14 -1713 14 l-1686 0 -32 -29z"/>
<path d="M1067 3999 c-21 -12 -47 -61 -47 -89 0 -33 26 -75 55 -88 19 -9 253
-12 943 -12 887 0 918 1 949 19 53 33 56 121 6 161 -25 20 -39 20 -957 20
-614 -1 -937 -4 -949 -11z"/>
<path d="M2555 3518 c-62 -34 -74 -110 -26 -159 l29 -29 920 0 920 0 31 26
c25 21 31 33 31 66 0 50 -13 74 -50 93 -25 13 -146 15 -932 15 -637 -1 -909
-4 -923 -12z"/>
<path d="M849 2481 c-31 -31 -39 -83 -19 -122 27 -50 0 -49 989 -49 l919 0 31
26 c38 32 49 80 27 122 -9 17 -25 36 -35 42 -13 7 -331 10 -951 10 l-932 0
-29 -29z"/>
<path d="M1574 1950 c-65 -26 -84 -112 -35 -161 l29 -29 592 0 591 0 24 24
c49 49 43 115 -15 154 l-33 22 -566 -1 c-311 0 -576 -4 -587 -9z"/>
<path d="M2689 1527 c-61 -41 -62 -125 -2 -164 25 -17 66 -18 553 -21 289 -2
545 0 569 3 60 9 91 42 91 95 0 23 -5 50 -11 62 -25 47 -43 48 -622 48 l-544
0 -34 -23z"/>
<path d="M3813 1128 c-31 -15 -56 -72 -48 -108 4 -16 20 -41 37 -55 l30 -25
549 0 549 0 32 29 c27 24 33 36 33 71 0 35 -6 47 -33 71 l-32 29 -548 -1
c-364 0 -554 -4 -569 -11z"/>
</g>
</svg>
