<?xml version="1.0" standalone="no"?>
<!DOCTYPE svg PUBLIC "-//W3C//DTD SVG 20010904//EN"
 "http://www.w3.org/TR/2001/REC-SVG-20010904/DTD/svg10.dtd">
<svg role="img" focusable="false" tabindex="-1" class="IconWidget---svg" width="576" height="512" viewBox="0 0 576 512" xmlns="http://www.w3.org/2000/svg">
  <path d="M544 128h-48v88c0 4.42-3.58 8-8 8h-16c-4.42 0-8-3.58-8-8v-88h-64v88c0 4.42-3.58 8-8 8h-16c-4.42 0-8-3.58-8-8v-88h-64v88c0 4.42-3.58 8-8 8h-16c-4.42 0-8-3.58-8-8v-88h-64v88c0 4.42-3.58 8-8 8h-16c-4.42 0-8-3.58-8-8v-88h-64v88c0 4.42-3.58 8-8 8H88c-4.42 0-8-3.58-8-8v-88H32c-17.67 0-32 14.33-32 32v192c0 17.67 14.33 32 32 32h512c17.67 0 32-14.33 32-32V160c0-17.67-14.33-32-32-32z">
  </path>
</svg>
